<svg width="929" height="254" viewBox="0 0 929 254" fill="none" xmlns="http://www.w3.org/2000/svg">
    <path
        d="M42.2 153.8C33.8 153.8 26.4 151.8 20 147.8C13.7333 143.8 8.8 138.2 5.2 131C1.73333 123.8 2.98023e-08 115.533 2.98023e-08 106.2C2.98023e-08 96.0667 2 87.0667 6 79.2C10 71.3333 15.4 65.1333 22.2 60.6C29.1333 56.0667 37 53.8 45.8 53.8C50.4667 53.8 55.0667 54.7333 59.6 56.6C64.1333 58.3333 67.9333 60.7333 71 63.8V55.6C72.2 55.2 73.6 54.8667 75.2 54.6C76.8 54.3333 78.4667 54.2 80.2 54.2C83.4 54.2 86.4 54.6667 89.2 55.6V207C89.2 238.2 77.8 253.8 55 253.8C44.4667 253.8 36.2 250.667 30.2 244.4C24.3333 238.133 21.4 229.533 21.4 218.6C21.4 194.2 38.0667 171.333 71.4 150V141.6C67.6667 145.467 63.3333 148.467 58.4 150.6C53.4667 152.733 48.0667 153.8 42.2 153.8ZM18.6 106.2C18.6 115.667 20.7333 123.133 25 128.6C29.4 133.933 35.4 136.6 43 136.6C51.4 136.6 58.1333 133.733 63.2 128C68.4 122.267 71 114.733 71 105.4V83C68.3333 79.4 64.9333 76.5333 60.8 74.4C56.6667 72.1333 52.4 71 48 71C42.2667 71 37.2 72.5333 32.8 75.6C28.4 78.6667 24.9333 82.8667 22.4 88.2C19.8667 93.4 18.6 99.4 18.6 106.2ZM39.4 218.2C39.4 223.933 40.7333 228.4 43.4 231.6C46.0667 234.933 49.7333 236.6 54.4 236.6C65.7333 236.6 71.4 226.733 71.4 207V171.2C50.0667 186.267 39.4 201.933 39.4 218.2ZM100.066 156C95.9323 159.467 92.999 161.867 91.2656 163.2C89.399 164.533 87.7323 165.2 86.2656 165.2C84.9323 165.2 83.4656 164.6 81.8656 163.4C80.2656 162.333 78.9323 161 77.8656 159.4C76.799 157.933 76.2656 156.6 76.2656 155.4C76.2656 153 77.8656 150.6 81.0656 148.2C87.199 143.4 93.399 138.133 99.6656 132.4C105.799 126.667 111.466 120.533 116.666 114C121.999 107.333 126.266 100.267 129.466 92.8C132.666 85.3333 134.266 77.4667 134.266 69.2V56.6C135.466 56.2 136.866 55.8667 138.466 55.6C140.066 55.3333 141.732 55.2 143.466 55.2C146.532 55.2 149.532 55.6667 152.466 56.6V116C152.466 123.333 153.399 128.6 155.266 131.8C157.266 135 160.399 136.6 164.666 136.6C166.532 136.6 167.932 137.4 168.866 139C169.932 140.6 170.466 142.733 170.466 145.4C170.466 147.533 169.866 149.467 168.666 151.2C167.599 152.933 165.799 153.8 163.266 153.8C144.999 153.8 135.332 143.2 134.266 122C129.732 128.267 124.466 134.2 118.466 139.8C112.599 145.267 106.466 150.667 100.066 156ZM143.066 27.8C139.332 27.8 136.132 26.4667 133.466 23.8C130.799 21.1333 129.466 17.9333 129.466 14.2C129.466 10.2 130.732 6.93332 133.266 4.39999C135.932 1.86666 139.199 0.599993 143.066 0.599993C147.066 0.599993 150.332 1.86666 152.866 4.39999C155.399 6.93332 156.666 10.2 156.666 14.2C156.666 18.0667 155.332 21.3333 152.666 24C150.132 26.5333 146.932 27.8 143.066 27.8ZM164.675 136.6C169.075 136.6 173.342 134.533 177.475 130.4C181.742 126.133 185.342 120.467 188.275 113.4C187.742 110.2 187.475 106.933 187.475 103.6C187.475 94 189.542 85.4667 193.675 78C197.808 70.5333 203.408 64.6667 210.475 60.4C217.675 56 225.742 53.8 234.675 53.8C243.608 53.8 251.608 56 258.675 60.4C265.742 64.6667 271.275 70.5333 275.275 78C279.408 85.4667 281.475 94 281.475 103.6C281.475 113.2 279.408 121.8 275.275 129.4C271.275 137 265.742 143 258.675 147.4C251.742 151.667 243.742 153.8 234.675 153.8C226.542 153.8 219.142 152.067 212.475 148.6C205.942 145 200.542 140.133 196.275 134C188.008 147.2 177.008 153.8 163.275 153.8C161.542 153.8 160.142 153 159.075 151.4C158.008 149.8 157.475 147.733 157.475 145.2C157.475 139.467 159.875 136.6 164.675 136.6ZM234.475 136.6C243.008 136.6 249.808 133.6 254.875 127.6C260.075 121.6 262.675 113.6 262.675 103.6C262.675 98.6667 261.942 94.1333 260.475 90C252.475 89.7333 245.208 88.1333 238.675 85.2C232.275 82.2667 227.208 78.2667 223.475 73.2C218.142 75.4667 213.942 79.3333 210.875 84.8C207.808 90.1333 206.275 96.5333 206.275 104C206.275 113.733 208.808 121.6 213.875 127.6C219.075 133.6 225.942 136.6 234.475 136.6ZM347.247 153.8C338.314 153.8 331.247 150.667 326.047 144.4C320.847 138 318.247 129.4 318.247 118.6V87.2C318.247 81.3333 317.38 77.2 315.647 74.8C313.914 72.2667 311.78 71 309.247 71C306.314 71 302.247 72.2667 297.047 74.8C291.847 77.3333 285.914 80.9333 279.247 85.6C278.047 86.4 276.78 86.8 275.447 86.8C273.58 86.8 271.714 85.7333 269.847 83.6C267.98 81.4667 267.047 79.2 267.047 76.8C267.047 74.5333 268.18 72.6667 270.447 71.2C279.914 64.9333 287.58 60.4667 293.447 57.8C299.314 55.1333 305.114 53.8 310.847 53.8C317.914 53.8 323.914 56.6 328.847 62.2C333.914 67.6667 336.447 75.1333 336.447 84.6V114.8C336.447 129.333 340.714 136.6 349.247 136.6C354.714 136.6 359.78 134.4 364.447 130C369.114 125.6 372.847 119.867 375.647 112.8C378.58 105.6 380.047 97.9333 380.047 89.8C380.047 88.7333 380.047 87.6667 380.047 86.6C373.78 84.2 368.914 81 365.447 77C365.847 72.7333 366.98 68.8667 368.847 65.4C370.714 61.8 372.98 59 375.647 57C378.447 54.8667 381.114 53.8 383.647 53.8C388.047 53.8 391.58 57.0667 394.247 63.6C397.047 70 398.447 78.2 398.447 88.2C398.447 100.6 396.18 111.8 391.647 121.8C387.247 131.667 381.18 139.467 373.447 145.2C365.714 150.933 356.98 153.8 347.247 153.8ZM468.922 153.8C460.522 153.8 453.122 151.8 446.722 147.8C440.455 143.8 435.522 138.2 431.922 131C428.455 123.8 426.722 115.533 426.722 106.2C426.722 98.0667 428.055 90.5333 430.722 83.6C417.789 86.6667 403.789 88.2 388.722 88.2C386.722 88.2 385.122 87.4 383.922 85.8C382.722 84.0667 382.122 81.9333 382.122 79.4C382.122 73.9333 384.322 71.2 388.722 71.2C411.255 71.2 431.922 67.3333 450.722 59.6C457.389 55.7333 464.655 53.8 472.522 53.8C477.189 53.8 481.789 54.7333 486.322 56.6C490.855 58.3333 494.655 60.7333 497.722 63.8V55.6C498.922 55.2 500.322 54.8667 501.922 54.6C503.522 54.3333 505.189 54.2 506.922 54.2C510.122 54.2 513.122 54.6667 515.922 55.6V116C515.922 123.333 516.855 128.6 518.722 131.8C520.722 135 523.855 136.6 528.122 136.6C529.989 136.6 531.389 137.4 532.322 139C533.389 140.6 533.922 142.733 533.922 145.4C533.922 147.533 533.322 149.467 532.122 151.2C531.055 152.933 529.255 153.8 526.722 153.8C514.055 153.8 505.522 148.6 501.122 138.2C497.255 143.133 492.589 147 487.122 149.8C481.655 152.467 475.589 153.8 468.922 153.8ZM445.322 106.2C445.322 115.667 447.455 123.133 451.722 128.6C456.122 133.933 462.122 136.6 469.722 136.6C478.122 136.6 484.855 133.733 489.922 128C495.122 122.267 497.722 114.733 497.722 105.4V83C495.055 79.4 491.655 76.5333 487.522 74.4C483.389 72.1333 479.122 71 474.722 71C468.989 71 463.922 72.5333 459.522 75.6C455.122 78.6667 451.655 82.8667 449.122 88.2C446.589 93.4 445.322 99.4 445.322 106.2ZM526.752 153.8C525.018 153.8 523.618 153 522.552 151.4C521.485 149.8 520.952 147.733 520.952 145.2C520.952 139.467 523.352 136.6 528.152 136.6C532.418 136.6 536.218 134.467 539.552 130.2C543.018 125.8 546.018 118.533 548.552 108.4L554.552 85C560.152 64.2 570.818 53.8 586.552 53.8C592.552 53.8 597.618 55.6 601.752 59.2C605.885 62.6667 608.752 67.4 610.352 73.4C614.085 67.1333 618.885 62.3333 624.752 59C630.618 55.5333 637.152 53.8 644.352 53.8C654.752 53.8 662.752 57.2 668.352 64C674.085 70.8 676.952 80.3333 676.952 92.6V116C676.952 123.333 677.885 128.6 679.752 131.8C681.752 135 684.885 136.6 689.152 136.6C691.018 136.6 692.418 137.4 693.352 139C694.418 140.6 694.952 142.733 694.952 145.4C694.952 147.533 694.352 149.467 693.152 151.2C692.085 152.933 690.285 153.8 687.752 153.8C668.418 153.8 658.752 141.933 658.752 118.2V92.6C658.752 78.2 653.085 71 641.752 71C635.885 71 630.685 73.3333 626.152 78C621.752 82.6667 618.285 89.1333 615.752 97.4C613.352 105.667 612.152 115.267 612.152 126.2V151C610.818 151.4 609.352 151.733 607.752 152C606.152 152.267 604.618 152.4 603.152 152.4C599.952 152.4 596.952 151.933 594.152 151V87.2C594.152 82 593.485 78 592.152 75.2C590.818 72.4 588.418 71 584.952 71C582.152 71 579.752 72.2667 577.752 74.8C575.752 77.3333 574.018 81.4 572.552 87L565.152 115.8C561.685 129 556.885 138.667 550.752 144.8C544.618 150.8 536.618 153.8 526.752 153.8ZM687.689 153.8C685.956 153.8 684.556 153 683.489 151.4C682.422 149.8 681.889 147.733 681.889 145.2C681.889 139.467 684.289 136.6 689.089 136.6C693.356 136.6 697.156 134.467 700.489 130.2C703.956 125.8 706.956 118.533 709.489 108.4L715.489 85C721.089 64.2 731.756 53.8 747.489 53.8C753.489 53.8 758.556 55.6 762.689 59.2C766.822 62.6667 769.689 67.4 771.289 73.4C775.022 67.1333 779.822 62.3333 785.689 59C791.556 55.5333 798.089 53.8 805.289 53.8C815.689 53.8 823.689 57.2 829.289 64C835.022 70.8 837.889 80.3333 837.889 92.6V116C837.889 123.333 838.822 128.6 840.689 131.8C842.689 135 845.822 136.6 850.089 136.6C851.956 136.6 853.356 137.4 854.289 139C855.356 140.6 855.889 142.733 855.889 145.4C855.889 147.533 855.289 149.467 854.089 151.2C853.022 152.933 851.222 153.8 848.689 153.8C829.356 153.8 819.689 141.933 819.689 118.2V92.6C819.689 78.2 814.022 71 802.689 71C796.822 71 791.622 73.3333 787.089 78C782.689 82.6667 779.222 89.1333 776.689 97.4C774.289 105.667 773.089 115.267 773.089 126.2V151C771.756 151.4 770.289 151.733 768.689 152C767.089 152.267 765.556 152.4 764.089 152.4C760.889 152.4 757.889 151.933 755.089 151V87.2C755.089 82 754.422 78 753.089 75.2C751.756 72.4 749.356 71 745.889 71C743.089 71 740.689 72.2667 738.689 74.8C736.689 77.3333 734.956 81.4 733.489 87L726.089 115.8C722.622 129 717.822 138.667 711.689 144.8C705.556 150.8 697.556 153.8 687.689 153.8ZM850.027 136.6C852.827 136.6 855.827 135.733 859.027 134C862.227 132.267 865.227 129.6 868.027 126C871.36 121.467 873.76 116.267 875.227 110.4C876.827 104.533 877.827 98.6 878.227 92.6V56.6C879.427 56.2 880.827 55.8667 882.427 55.6C884.027 55.3333 885.693 55.2 887.427 55.2C890.493 55.2 893.493 55.6667 896.427 56.6V114.2C896.427 121.267 897.493 126.8 899.627 130.8C901.893 134.667 905.627 136.6 910.827 136.6C912.293 136.6 913.893 136.267 915.627 135.6C917.36 134.933 919.16 133.933 921.027 132.6C923.293 133.667 925.16 135.533 926.627 138.2C928.093 140.733 928.76 143.267 928.627 145.8C926.493 148.2 923.76 150.133 920.427 151.6C917.093 153.067 913.493 153.8 909.627 153.8H909.427C895.56 153.8 886.56 147.267 882.427 134.2C880.56 137.267 878.56 139.867 876.427 142C872.827 145.6 868.627 148.467 863.827 150.6C859.16 152.733 854.093 153.8 848.627 153.8C846.76 153.8 845.36 152.867 844.427 151C843.36 149.267 842.827 147.333 842.827 145.2C842.827 142.933 843.427 140.933 844.627 139.2C845.693 137.467 847.493 136.6 850.027 136.6ZM887.627 27.8C883.893 27.8 880.693 26.4667 878.027 23.8C875.36 21.1333 874.027 17.9333 874.027 14.2C874.027 10.2 875.293 6.93332 877.827 4.39999C880.493 1.86666 883.76 0.599993 887.627 0.599993C891.627 0.599993 894.893 1.86666 897.427 4.39999C899.96 6.93332 901.227 10.2 901.227 14.2C901.227 18.0667 899.893 21.3333 897.227 24C894.693 26.5333 891.493 27.8 887.627 27.8Z"
        fill="url(#paint0_linear_103_24)" />
    <defs>
        <linearGradient id="paint0_linear_103_24" x1="76" y1="54.0001" x2="900" y2="120.5"
            gradientUnits="userSpaceOnUse">
            <stop stop-color="#29949C" />
            <stop offset="0.065" stop-color="#ACD15E" />
            <stop offset="0.19" stop-color="#FFD570" />
            <stop offset="0.275" stop-color="#FF9F38" />
            <stop offset="0.34" stop-color="#FDD35D" />
            <stop offset="0.45" stop-color="#FD9156" />
            <stop offset="0.51" stop-color="#F55544" />
            <stop offset="0.585" stop-color="#EF716F" />
            <stop offset="0.665" stop-color="#EE7271" />
            <stop offset="0.735" stop-color="#9174B5" />
            <stop offset="0.845" stop-color="#9575B3" />
            <stop offset="0.93" stop-color="#6163B8" />
            <stop offset="0.975" stop-color="#6163B8" />
            <stop offset="0.9751" stop-color="#6163B8" />
            <stop offset="0.99" stop-color="#6C9DE2" />
            <stop offset="0.9901" stop-color="#7FB6DD" />
        </linearGradient>
    </defs>
</svg>